HIERARCHY
ROOT Hips
{
	OFFSET 0.000000 0.000000 0.000000 
	CHANNELS 6 Xposition Yposition Zposition Zrotation Yrotation Xrotation
	JOINT LeftUpLeg
	{
		OFFSET 1.363060 -1.794630 0.839290 
		CHANNELS 3 Zrotation Yrotation Xrotation
		JOINT LeftLeg
		{
			OFFSET 2.448110 -6.726130 0.000000 
			CHANNELS 3 Zrotation Yrotation Xrotation
			JOINT LeftFoot
			{
				OFFSET 2.562200 -7.039590 0.000000 
				CHANNELS 3 Zrotation Yrotation Xrotation
				JOINT LeftToeBase
				{
					OFFSET 0.157640 -0.433110 2.322550 
					CHANNELS 3 Zrotation Yrotation Xrotation
					End Site
					{
						OFFSET 0.000000 0.000000 0.000000 
					}
				}
			}
		}
	}
	JOINT RightUpLeg
	{
		OFFSET -1.305520 -1.794630 0.839290 
		CHANNELS 3 Zrotation Yrotation Xrotation
		JOINT RightLeg
		{
			OFFSET -2.542530 -6.985550 0.000000 
			CHANNELS 3 Zrotation Yrotation Xrotation
			JOINT RightFoot
			{
				OFFSET -2.568260 -7.056230 0.000000 
				CHANNELS 3 Zrotation Yrotation Xrotation
				JOINT RightToeBase
				{
					OFFSET -0.164730 -0.452590 2.363150 
					CHANNELS 3 Zrotation Yrotation Xrotation
					End Site
					{
						OFFSET 0.000000 0.000000 0.000000 
					}
				}
			}
		}
	}
	JOINT Spine
	{
		OFFSET 0.028270 2.035590 -0.193380 
		CHANNELS 3 Zrotation Yrotation Xrotation
		JOINT Spine1
		{
			OFFSET 0.056720 2.048850 -0.042750 
			CHANNELS 3 Zrotation Yrotation Xrotation
			JOINT Neck1
			{
				OFFSET -0.054170 1.746240 0.172020 
				CHANNELS 3 Zrotation Yrotation Xrotation
				JOINT Head
				{
					OFFSET 0.104070 1.761360 -0.123970 
					CHANNELS 3 Zrotation Yrotation Xrotation
					End Site
					{
						OFFSET 0.000000 0.000000 0.000000 
					}
				}
			}
			JOINT LeftArm
			{
				OFFSET 3.362410 1.200890 -0.311210 
				CHANNELS 3 Zrotation Yrotation Xrotation
				JOINT LeftForeArm
				{
					OFFSET 4.983000 -0.000000 -0.000000 
					CHANNELS 3 Zrotation Yrotation Xrotation
					JOINT LeftHand
					{
						OFFSET 3.483560 -0.000000 -0.000000 
						CHANNELS 3 Zrotation Yrotation Xrotation
						JOINT LeftHandIndex1
						{
							OFFSET 0.715260 -0.000000 -0.000000 
							CHANNELS 3 Zrotation Yrotation Xrotation
							End Site
							{
								OFFSET 0.000000 0.000000 0.000000 
							}
						}
					}
				}
			}
			JOINT RightArm
			{
				OFFSET -3.136600 1.374050 -0.404650 
				CHANNELS 3 Zrotation Yrotation Xrotation
				JOINT RightForeArm
				{
					OFFSET -5.241900 -0.000000 -0.000000 
					CHANNELS 3 Zrotation Yrotation Xrotation
					JOINT RightHand
					{
						OFFSET -3.444170 -0.000000 -0.000000 
						CHANNELS 3 Zrotation Yrotation Xrotation
						JOINT RightHandIndex1
						{
							OFFSET -0.622530 -0.000000 -0.000000 
							CHANNELS 3 Zrotation Yrotation Xrotation
							End Site
							{
								OFFSET 0.000000 0.000000 0.000000 
							}
						}
					}
				}
			}
		}
	}
}
MOTION
Frames: 6
Frame Time: 0.041667
10.841832 18.197464 9.485618 148.969489 -85.460532 -143.557861 -11.823247 -11.355173 -2.989324 -0.099176 1.870684 7.527680 -0.842627 9.570590 -10.751538 0.698900 5.343700 14.891400 16.468339 7.902556 -1.834688 -1.158452 -1.679601 7.994206 0.779140 -5.552558 -3.189950 -0.714000 5.400100 -15.053300 -4.198902 -3.934899 8.611326 -0.275333 -2.379371 3.769115 27.995773 -29.116138 8.337548 6.572500 -14.314700 7.123800 -64.737794 -19.764310 58.768189 136.182417 -50.039376 -100.776001 0.887279 -0.352279 22.573111 -7.125000 0.000000 0.000000 78.594070 0.090092 64.466590 -110.884983 58.891602 -81.787056 1.131932 0.536230 -3.482900 7.125000 0.000000 0.000000 
10.840102 18.197176 9.492345 148.192888 -85.497798 -142.820643 -11.885014 -11.416564 -2.883307 -0.103771 1.844148 7.444322 -0.850032 9.610250 -10.695334 0.688400 5.304500 14.779200 16.408015 7.841227 -1.851811 -1.163044 -1.712158 8.088610 0.768384 -5.509558 -3.389069 -0.734900 5.476800 -15.273600 -4.619371 -3.798913 8.615260 -0.363378 -2.310923 3.756929 28.076960 -29.220364 8.281273 6.552000 -14.370500 7.074700 -64.449774 -19.996661 59.168339 136.003841 -50.136958 -100.679667 0.865264 -0.392100 23.892018 -7.125000 0.000000 0.000000 78.907430 -0.018967 64.101010 -110.669220 58.929380 -81.604101 1.142299 0.523310 -2.881364 7.125000 0.000000 0.000000 
10.841640 18.197080 9.498783 147.023763 -85.538748 -141.648656 -12.002878 -11.469172 -2.807680 -0.109770 1.788677 7.314975 -0.879358 9.755540 -10.527556 0.643100 5.130300 14.280600 16.297480 7.823355 -1.955794 -1.172041 -1.775340 8.238644 0.763180 -5.508137 -3.462031 -0.721100 5.426300 -15.128700 -4.240926 -4.059489 8.543912 -0.244356 -2.444676 3.699290 27.915275 -29.042481 8.493295 6.552900 -14.261500 7.138300 -64.572817 -19.753513 58.786984 135.934206 -50.186014 -100.612987 0.850983 -0.443168 25.581102 -7.125000 0.000000 0.000000 78.533574 0.012714 64.565843 -110.447989 58.959352 -81.432011 1.150032 0.514438 -2.573331 7.125000 0.000000 0.000000 
10.840294 18.196311 9.498495 146.656340 -85.340847 -141.274870 -12.204149 -11.303780 -2.766068 -0.115516 1.733795 7.183609 -0.903075 9.882864 -10.406230 0.598700 4.953200 13.775200 16.118469 8.008613 -2.004189 -1.182880 -1.836091 8.382696 0.754121 -5.468502 -3.468512 -0.633200 5.091300 -14.169200 -4.077569 -4.125269 8.520742 -0.104887 -2.482302 3.683430 27.720835 -29.011887 8.615102 6.503500 -14.227700 7.182500 -64.710506 -19.673795 58.525661 135.841463 -50.259627 -100.514215 0.845215 -0.499230 27.452566 -7.125000 0.000000 0.000000 78.316944 0.029849 64.864276 -110.239260 58.983750 -81.277949 1.154028 0.511825 -2.290506 7.125000 0.000000 0.000000 
10.836162 18.197176 9.497246 146.843921 -85.239058 -141.414438 -12.242955 -11.210949 -2.715549 -0.127338 1.672284 6.995928 -0.901589 9.882343 -10.399021 0.641600 5.124500 14.264000 16.098545 8.147798 -2.124008 -1.201070 -1.903709 8.581873 0.741151 -5.368803 -3.391733 -0.613500 5.012900 -13.945400 -4.459496 -4.054162 8.400786 -0.153965 -2.446576 3.725372 27.817067 -29.084542 8.670500 6.504600 -14.262300 7.168600 -64.465110 -19.662036 58.687725 135.706162 -50.322102 -100.437268 0.831524 -0.507378 29.209540 -7.125000 0.000000 0.000000 78.505999 0.019525 64.823530 -110.044191 59.011734 -81.137890 1.157847 0.512579 -2.135747 7.125000 0.000000 0.000000 
10.832895 18.198714 9.499552 146.538289 -85.272910 -141.050443 -12.237630 -11.246059 -2.672396 -0.137271 1.619472 6.841821 -0.900213 9.879907 -10.403982 0.674300 5.251000 14.625900 16.105158 8.162048 -2.253353 -1.212846 -1.953917 8.724788 0.733394 -5.319918 -3.392314 -0.676400 5.258700 -14.648000 -4.602561 -4.095904 8.243418 -0.173600 -2.469170 3.785820 28.056587 -29.051896 8.756791 6.593200 -14.253000 7.181400 -64.206359 -19.482129 58.781158 135.693383 -50.312661 -100.452751 0.813173 -0.511204 30.836501 -7.125000 0.000000 0.000000 78.488941 0.033473 64.839619 -110.027320 59.007623 -81.138516 1.155524 0.517342 -1.995442 7.125000 0.000000 0.000000 
